<svg width="129" height="41" viewBox="0 0 129 41" fill="none" xmlns="http://www.w3.org/2000/svg">
<path fill-rule="evenodd" clip-rule="evenodd" d="M129 20.0336C129 8.96936 120.031 0 108.966 0H20.0336C8.96936 0 0 8.96937 0 20.0336V20.8228C0 31.8871 8.96937 40.8565 20.0336 40.8565H108.966C120.031 40.8565 129 31.8871 129 20.8228V20.0336ZM26.3197 16.2544C26.1355 15.8047 25.6977 15.5109 25.2117 15.5109C24.5504 15.5109 24.0143 16.0469 24.0143 16.7082V25.6539C24.0143 26.0871 24.3655 26.4383 24.7987 26.4383C25.2318 26.4383 25.583 26.0871 25.583 25.6539V18.5861C25.583 18.5527 25.6102 18.5255 25.6436 18.5255C25.6683 18.5255 25.6905 18.5404 25.6998 18.5632L28.6611 25.8195C28.8099 26.184 29.1644 26.4223 29.5582 26.4223C29.9518 26.4223 30.3063 26.1841 30.4551 25.8197L33.4164 18.5686C33.4257 18.5457 33.4479 18.5308 33.4725 18.5308C33.506 18.5308 33.5331 18.558 33.5331 18.5915V25.6539C33.5331 26.0871 33.8843 26.4383 34.3175 26.4383C34.7507 26.4383 35.1018 26.0871 35.1018 25.6539V16.7082C35.1018 16.0469 34.5657 15.5109 33.9045 15.5109C33.4184 15.5109 32.9806 15.8047 32.7964 16.2544L29.6464 23.946C29.6317 23.9818 29.5968 24.0052 29.5581 24.0052C29.5193 24.0052 29.4845 23.9818 29.4698 23.946L26.3197 16.2544ZM46.3507 23.9839C46.7776 23.1444 46.991 22.1413 46.991 20.9746C46.991 19.8078 46.7776 18.8065 46.3507 17.9706C45.9239 17.1311 45.3387 16.4873 44.5953 16.0391C43.8554 15.5873 43.0142 15.3615 42.0715 15.3615C41.1253 15.3615 40.2805 15.5873 39.5371 16.0391C38.7972 16.4873 38.2138 17.1311 37.787 17.9706C37.3601 18.8065 37.1467 19.8078 37.1467 20.9746C37.1467 22.1377 37.3601 23.1391 37.787 23.9786C38.2138 24.818 38.7972 25.4636 39.5371 25.9154C40.2805 26.3636 41.1253 26.5877 42.0715 26.5877C43.0142 26.5877 43.8554 26.3636 44.5953 25.9154C45.3387 25.4636 45.9239 24.8198 46.3507 23.9839ZM44.9261 18.7283C45.2142 19.3365 45.3583 20.0853 45.3583 20.9746C45.3583 21.8639 45.2142 22.6144 44.9261 23.2262C44.6415 23.8345 44.2503 24.2969 43.7523 24.6135C43.2578 24.9265 42.6976 25.083 42.0715 25.083C41.4419 25.083 40.8799 24.9265 40.3855 24.6135C39.891 24.2969 39.4997 23.8345 39.2116 23.2262C38.927 22.6144 38.7848 21.8639 38.7848 20.9746C38.7848 20.0853 38.927 19.3365 39.2116 18.7283C39.4997 18.1164 39.891 17.654 40.3855 17.341C40.8799 17.0244 41.4419 16.8661 42.0715 16.8661C42.6976 16.8661 43.2578 17.0244 43.7523 17.341C44.2503 17.654 44.6415 18.1164 44.9261 18.7283ZM52.9416 15.5109C50.7904 15.5109 49.0466 17.2547 49.0466 19.4059V25.6139C49.0466 26.0692 49.4156 26.4383 49.8709 26.4383C50.3262 26.4383 50.6953 26.0692 50.6953 25.6139V24.3707C50.6953 23.2288 51.621 22.3032 52.7629 22.3032H52.9363C53.0015 22.3032 53.0619 22.3385 53.0927 22.396L55.0302 26.0053C55.1733 26.2719 55.4514 26.4383 55.7541 26.4383C56.3783 26.4383 56.7746 25.7696 56.4747 25.222L54.8909 22.3298C54.8019 22.1673 54.8784 21.9649 55.0438 21.8816C55.6059 21.6006 56.0256 21.2076 56.3031 20.7025C56.5841 20.1938 56.7246 19.6051 56.7246 18.9364C56.7246 18.2641 56.5859 17.6718 56.3084 17.1596C56.0309 16.6438 55.6112 16.2401 55.0492 15.9484C54.4907 15.6567 53.7882 15.5109 52.9416 15.5109ZM50.6953 18.9043C50.6953 19.9976 51.5815 20.8839 52.6748 20.8839H52.7869C53.3204 20.8839 53.7544 20.8074 54.0888 20.6544C54.4267 20.5015 54.6739 20.2792 54.8304 19.9875C54.9869 19.6958 55.0652 19.3454 55.0652 18.9364C55.0652 18.5237 54.9852 18.1662 54.8251 17.8639C54.6686 17.5615 54.4214 17.3303 54.0834 17.1703C53.7491 17.0066 53.3098 16.9248 52.7655 16.9248H52.6748C51.5815 16.9248 50.6953 17.8111 50.6953 18.9043ZM65.5818 16.2205C65.5818 15.8286 65.2641 15.5109 64.8721 15.5109H62.1563C60.2644 15.5109 58.7308 17.0445 58.7308 18.9364V22.9808C58.7308 24.8903 60.2788 26.4383 62.1883 26.4383H64.9362C65.3281 26.4383 65.6458 26.1206 65.6458 25.7286C65.6458 25.3367 65.3281 25.019 64.9362 25.019H62.0522C61.1284 25.019 60.3795 24.2701 60.3795 23.3463C60.3795 22.4225 61.1284 21.6735 62.0522 21.6735H64.5173C64.9078 21.6735 65.2243 21.357 65.2243 20.9666C65.2243 20.5761 64.9078 20.2596 64.5173 20.2596H62.0442C61.1248 20.2596 60.3795 19.5143 60.3795 18.5949C60.3795 17.6755 61.1248 16.9301 62.0442 16.9301H64.8721C65.2641 16.9301 65.5818 16.6124 65.5818 16.2205ZM71.7605 25.6139C71.7605 26.0692 72.1295 26.4383 72.5848 26.4383C73.0401 26.4383 73.4092 26.0692 73.4092 25.6139V16.3352C73.4092 15.8799 73.0401 15.5109 72.5848 15.5109C72.1295 15.5109 71.7605 15.8799 71.7605 16.3352V25.6139ZM82.8181 26.0103C83.0039 26.2784 83.3093 26.4383 83.6355 26.4383C84.1848 26.4383 84.6301 25.993 84.6301 25.4437V16.3272C84.6301 15.8764 84.2646 15.5109 83.8137 15.5109C83.3629 15.5109 82.9974 15.8764 82.9974 16.3272V23.4692C82.9974 23.5059 82.9676 23.5357 82.9308 23.5357C82.909 23.5357 82.8886 23.525 82.8761 23.507L77.6349 15.942C77.4479 15.672 77.1402 15.5109 76.8117 15.5109C76.2586 15.5109 75.8102 15.9592 75.8102 16.5123V25.6139C75.8102 26.0692 76.1793 26.4383 76.6346 26.4383C77.0899 26.4383 77.459 26.0692 77.459 25.6139V18.4907C77.459 18.4539 77.4887 18.4241 77.5255 18.4241C77.5473 18.4241 77.5677 18.4348 77.5802 18.4528L82.8181 26.0103ZM93.8114 16.2205C93.8114 15.8286 93.4937 15.5109 93.1018 15.5109H90.4233C88.5521 15.5109 87.0351 17.0278 87.0351 18.899V25.6139C87.0351 26.0692 87.4042 26.4383 87.8595 26.4383C88.3148 26.4383 88.6838 26.0692 88.6838 25.6139V23.9946C88.6838 22.7127 89.723 21.6735 91.0049 21.6735H92.6189C93.0093 21.6735 93.3259 21.357 93.3259 20.9666C93.3259 20.5761 93.0093 20.2596 92.6189 20.2596H90.3486C89.4292 20.2596 88.6838 19.5143 88.6838 18.5949C88.6838 17.6755 89.4292 16.9301 90.3486 16.9301H93.1018C93.4937 16.9301 93.8114 16.6124 93.8114 16.2205ZM104.691 23.9839C105.118 23.1444 105.331 22.1413 105.331 20.9746C105.331 19.8078 105.118 18.8065 104.691 17.9706C104.264 17.1311 103.679 16.4873 102.935 16.0391C102.196 15.5873 101.354 15.3615 100.412 15.3615C99.4654 15.3615 98.6206 15.5873 97.8772 16.0391C97.1373 16.4873 96.5539 17.1311 96.1271 17.9706C95.7002 18.8065 95.4868 19.8078 95.4868 20.9746C95.4868 22.1377 95.7002 23.1391 96.1271 23.9786C96.5539 24.818 97.1373 25.4636 97.8772 25.9154C98.6206 26.3636 99.4654 26.5877 100.412 26.5877C101.354 26.5877 102.196 26.3636 102.935 25.9154C103.679 25.4636 104.264 24.8198 104.691 23.9839ZM103.266 18.7283C103.554 19.3365 103.698 20.0853 103.698 20.9746C103.698 21.8639 103.554 22.6144 103.266 23.2262C102.982 23.8345 102.59 24.2969 102.092 24.6135C101.598 24.9265 101.038 25.083 100.412 25.083C99.782 25.083 99.22 24.9265 98.7256 24.6135C98.2311 24.2969 97.8398 23.8345 97.5517 23.2262C97.2671 22.6144 97.1249 21.8639 97.1249 20.9746C97.1249 20.0853 97.2671 19.3365 97.5517 18.7283C97.8398 18.1164 98.2311 17.654 98.7256 17.341C99.22 17.0244 99.782 16.8661 100.412 16.8661C101.038 16.8661 101.598 17.0244 102.092 17.341C102.59 17.654 102.982 18.1164 103.266 18.7283Z" fill="white"/>
</svg>
