<svg width="62" height="115" viewBox="0 0 62 115" fill="none" xmlns="http://www.w3.org/2000/svg">
<g filter="url(#filter0_d_101_79)">
<path d="M25.7282 17.0361C25.4615 16.2508 24.6088 15.8304 23.8235 16.0971C23.0383 16.3638 22.6178 17.2165 22.8845 18.0018L25.7282 17.0361ZM20.0212 82.3807C20.0212 86.8037 23.6067 90.3892 28.0296 90.3892C32.4526 90.3892 36.0381 86.8037 36.0381 82.3807C36.0381 77.9578 32.4526 74.3722 28.0296 74.3722C23.6067 74.3722 20.0212 77.9578 20.0212 82.3807ZM24.3064 57.7428L22.8234 57.5068L24.3064 57.7428ZM40.476 43.5043L38.9747 43.4738L40.476 43.5043ZM24.0918 20.5963C24.5036 21.3161 25.421 21.5659 26.1408 21.1541C26.8607 20.7423 27.1104 19.8249 26.6986 19.1051L24.0918 20.5963ZM29.5097 23.1873C29.0038 22.5301 28.061 22.4074 27.4038 22.9133C26.7467 23.4191 26.624 24.3619 27.1299 25.0191L29.5097 23.1873ZM30.3912 29.0821C30.9167 29.7237 31.8627 29.8178 32.5043 29.2923C33.1459 28.7669 33.2401 27.8208 32.7146 27.1792L30.3912 29.0821ZM35.9776 31.2303C35.4684 30.5757 34.525 30.4579 33.8704 30.967C33.2158 31.4762 33.0979 32.4196 33.6071 33.0742L35.9776 31.2303ZM36.5332 37.1543C36.9788 37.8537 37.907 38.0594 38.6065 37.6138C39.3059 37.1682 39.5116 36.24 39.066 35.5405L36.5332 37.1543ZM41.5128 40.5259C41.2685 39.7334 40.4281 39.2889 39.6356 39.5332C38.843 39.7774 38.3986 40.6179 38.6428 41.4104L41.5128 40.5259ZM38.3746 45.2963C37.9029 45.9784 38.0735 46.9137 38.7556 47.3854C39.4377 47.8571 40.373 47.6866 40.8447 47.0045L38.3746 45.2963ZM35.8248 50.8622C36.5642 50.4867 36.8592 49.5829 36.4837 48.8435C36.1082 48.104 35.2044 47.809 34.465 48.1845L35.8248 50.8622ZM29.3633 50.6021C28.622 50.9739 28.3225 51.8762 28.6942 52.6175C29.066 53.3588 29.9683 53.6584 30.7096 53.2866L29.3633 50.6021ZM26.6374 56.1484C27.1589 55.5036 27.0588 54.5581 26.414 54.0367C25.7691 53.5152 24.8237 53.6152 24.3022 54.2601L26.6374 56.1484ZM22.3684 60.7157C22.2686 61.539 22.8552 62.2872 23.6785 62.387C24.5017 62.4868 25.25 61.9002 25.3498 61.0769L22.3684 60.7157ZM25.0272 67.1843C24.9954 66.3556 24.2978 65.7096 23.4691 65.7414C22.6404 65.7733 21.9944 66.4709 22.0263 67.2996L25.0272 67.1843ZM23.0946 73.9167C23.3219 74.7142 24.1527 75.1765 24.9502 74.9493C25.7478 74.722 26.2101 73.8912 25.9828 73.0937L23.0946 73.9167ZM28.1168 78.8779C27.7899 78.1157 26.9071 77.7629 26.1449 78.0898C25.3827 78.4167 25.0299 79.2995 25.3568 80.0617L28.1168 78.8779ZM22.8845 18.0018C23.1745 18.8559 23.5941 19.7261 24.0918 20.5963L26.6986 19.1051C26.263 18.3435 25.9378 17.6535 25.7282 17.0361L22.8845 18.0018ZM27.1299 25.0191C28.1518 26.3468 29.272 27.7155 30.3912 29.0821L32.7146 27.1792C31.5901 25.8062 30.4992 24.4728 29.5097 23.1873L27.1299 25.0191ZM33.6071 33.0742C34.6926 34.4697 35.6934 35.8362 36.5332 37.1543L39.066 35.5405C38.1556 34.1118 37.092 32.6631 35.9776 31.2303L33.6071 33.0742ZM38.6428 41.4104C38.8794 42.178 38.9871 42.8641 38.9747 43.4738L41.9772 43.5348C41.9976 42.5316 41.8193 41.5206 41.5128 40.5259L38.6428 41.4104ZM38.9747 43.4738C38.9606 44.1659 38.7513 44.7517 38.3746 45.2963L40.8447 47.0045C41.5282 46.0161 41.9502 44.8644 41.9772 43.5348L38.9747 43.4738ZM34.465 48.1845C33.6776 48.5844 32.8432 48.9689 31.975 49.3676C31.1164 49.762 30.2234 50.1708 29.3633 50.6021L30.7096 53.2866C31.5148 52.8828 32.3581 52.4965 33.2284 52.0968C34.0892 51.7014 34.9764 51.293 35.8248 50.8622L34.465 48.1845ZM24.3022 54.2601C23.5639 55.1731 23.0242 56.2458 22.8234 57.5068L25.7893 57.9789C25.8959 57.3088 26.1807 56.7132 26.6374 56.1484L24.3022 54.2601ZM22.8234 57.5068C22.6429 58.6407 22.4908 59.706 22.3684 60.7157L25.3498 61.0769C25.4668 60.1115 25.6134 59.0838 25.7893 57.9789L22.8234 57.5068ZM22.0263 67.2996C22.1148 69.6035 22.4658 71.7098 23.0946 73.9167L25.9828 73.0937C25.416 71.1044 25.106 69.2356 25.0272 67.1843L22.0263 67.2996ZM25.3568 80.0617C25.7556 80.9914 26.1911 81.9678 26.6634 83.0037L29.3959 81.7578C28.9296 80.7351 28.5039 79.7805 28.1168 78.8779L25.3568 80.0617Z" fill="white"/>
</g>
<defs>
<filter id="filter0_d_101_79" x="0" y="-2.38671e-07" width="62" height="114.415" filterUnits="userSpaceOnUse" color-interpolation-filters="sRGB">
<feFlood flood-opacity="0" result="BackgroundImageFix"/>
<feColorMatrix in="SourceAlpha" type="matrix" values="0 0 0 0 0 0 0 0 0 0 0 0 0 0 0 0 0 0 127 0" result="hardAlpha"/>
<feOffset dy="4"/>
<feGaussianBlur stdDeviation="10"/>
<feComposite in2="hardAlpha" operator="out"/>
<feColorMatrix type="matrix" values="0 0 0 0 0 0 0 0 0 0 0 0 0 0 0 0 0 0 0.67 0"/>
<feBlend mode="normal" in2="BackgroundImageFix" result="effect1_dropShadow_101_79"/>
<feBlend mode="normal" in="SourceGraphic" in2="effect1_dropShadow_101_79" result="shape"/>
</filter>
</defs>
</svg>
